<svg width="136" height="40" viewBox="0 0 136 40" fill="none" xmlns="http://www.w3.org/2000/svg">
<g clip-path="url(#clip0_17_47)">
<rect x="0.468323" width="135" height="40" rx="5" fill="white"/>
<path d="M130.468 40H5.46732C2.71732 40 0.468323 37.75 0.468323 35V5C0.468323 2.25 2.71732 0 5.46732 0H130.468C133.218 0 135.468 2.25 135.468 5V35C135.468 37.75 133.218 40 130.468 40Z" fill="white"/>
<path d="M130.468 0H5.46732C2.71732 0 0.468323 2.25 0.468323 5V35C0.468323 37.75 2.71732 40 5.46732 40H130.468C133.218 40 135.468 37.75 135.468 35V5C135.468 2.25 133.218 0 130.468 0ZM130.468 0.8C132.784 0.8 134.668 2.684 134.668 5V35C134.668 37.316 132.784 39.201 130.468 39.201H5.46732C3.15132 39.201 1.26832 37.316 1.26832 35V5C1.26832 2.684 3.15132 0.8 5.46732 0.8H130.468Z" fill="#030404"/>
<path d="M10.8546 7.60201C10.5636 7.91001 10.3916 8.38801 10.3916 9.00701V31.123C10.3916 31.743 10.5636 32.22 10.8546 32.528L10.9286 32.6L23.3176 20.211V20.065V19.919L10.9286 7.52901L10.8546 7.60201Z" fill="url(#paint0_linear_17_47)"/>
<path d="M27.4476 24.343L23.3186 20.212V20.066V19.92L27.4486 15.79L27.5416 15.843L32.4346 18.623C33.8326 19.417 33.8326 20.716 32.4346 21.511L27.5416 24.291L27.4476 24.343Z" fill="url(#paint1_linear_17_47)"/>
<path d="M27.5416 24.289L23.3186 20.065L10.8546 32.528C11.3156 33.016 12.0756 33.076 12.9326 32.589L27.5416 24.289Z" fill="url(#paint2_linear_17_47)"/>
<path d="M27.5416 15.841L12.9336 7.54101C12.0766 7.05401 11.3166 7.11501 10.8556 7.60201L23.3186 20.065L27.5416 15.841Z" fill="url(#paint3_linear_17_47)"/>
<path opacity="0.2" d="M27.4486 24.196L12.9336 32.443C12.1216 32.904 11.3956 32.874 10.9296 32.454L10.8546 32.529L10.9286 32.601C11.3946 33.021 12.1206 33.052 12.9326 32.59L27.5406 24.29L27.4486 24.196Z" fill="black"/>
<path opacity="0.12" d="M10.8546 32.382C10.5636 32.074 10.3916 31.596 10.3916 30.977V31.123C10.3916 31.742 10.5636 32.22 10.8546 32.528L10.9296 32.453L10.8546 32.382Z" fill="black"/>
<path opacity="0.12" d="M32.4346 21.363L27.4486 24.196L27.5416 24.289L32.4346 21.509C33.1336 21.112 33.4826 20.589 33.4826 20.066C33.4236 20.539 33.0676 21.003 32.4346 21.363Z" fill="black"/>
<path opacity="0.25" d="M12.9326 7.68702L32.4336 18.767C33.0676 19.127 33.4226 19.591 33.4816 20.065C33.4816 19.542 33.1326 19.018 32.4336 18.621L12.9326 7.54102C11.5346 6.74702 10.3916 7.40602 10.3916 9.00702V9.15402C10.3916 7.55302 11.5356 6.89302 12.9326 7.68702Z" fill="white"/>
<path d="M68.5623 21.705C66.2103 21.705 64.2933 23.493 64.2933 25.958C64.2933 28.407 66.2103 30.211 68.5623 30.211C70.9143 30.211 72.8313 28.407 72.8313 25.958C72.8313 23.493 70.9143 21.705 68.5623 21.705ZM68.5623 28.536C67.2733 28.536 66.1613 27.473 66.1613 25.958C66.1613 24.427 67.2733 23.38 68.5623 23.38C69.8513 23.38 70.9623 24.427 70.9623 25.958C70.9623 27.472 69.8513 28.536 68.5623 28.536ZM59.2483 21.705C56.8963 21.705 54.9793 23.493 54.9793 25.958C54.9793 28.407 56.8963 30.211 59.2483 30.211C61.6003 30.211 63.5173 28.407 63.5173 25.958C63.5183 23.493 61.6003 21.705 59.2483 21.705ZM59.2483 28.536C57.9593 28.536 56.8483 27.473 56.8483 25.958C56.8483 24.427 57.9603 23.38 59.2483 23.38C60.5373 23.38 61.6483 24.427 61.6483 25.958C61.6493 27.472 60.5373 28.536 59.2483 28.536ZM48.1703 23.01V24.814H52.4883C52.3593 25.829 52.0213 26.57 51.5053 27.086C50.8773 27.714 49.8943 28.407 48.1703 28.407C45.5123 28.407 43.4343 26.264 43.4343 23.606C43.4343 20.948 45.5123 18.805 48.1703 18.805C49.6043 18.805 50.6513 19.369 51.4243 20.094L52.6973 18.821C51.6183 17.79 50.1843 17 48.1703 17C44.5293 17 41.4683 19.964 41.4683 23.605C41.4683 27.246 44.5293 30.21 48.1703 30.21C50.1353 30.21 51.6183 29.566 52.7783 28.357C53.9703 27.165 54.3413 25.489 54.3413 24.136C54.3413 23.717 54.3093 23.33 54.2443 23.008H48.1703V23.01ZM93.4783 24.411C93.1243 23.46 92.0443 21.704 89.8373 21.704C87.6463 21.704 85.8263 23.428 85.8263 25.957C85.8263 28.341 87.6303 30.21 90.0473 30.21C91.9963 30.21 93.1243 29.018 93.5913 28.325L92.1413 27.358C91.6583 28.067 90.9973 28.534 90.0473 28.534C89.0963 28.534 88.4203 28.099 87.9853 27.245L93.6723 24.893L93.4783 24.411ZM87.6783 25.829C87.6303 24.186 88.9513 23.348 89.9013 23.348C90.6423 23.348 91.2703 23.718 91.4803 24.25L87.6783 25.829ZM83.0543 29.953H84.9233V17.452H83.0543V29.953ZM79.9933 22.655H79.9293C79.5103 22.156 78.7053 21.704 77.6903 21.704C75.5633 21.704 73.6143 23.573 73.6143 25.973C73.6143 28.357 75.5633 30.21 77.6903 30.21C78.7053 30.21 79.5103 29.759 79.9293 29.243H79.9933V29.855C79.9933 31.482 79.1233 32.352 77.7213 32.352C76.5773 32.352 75.8683 31.53 75.5783 30.838L73.9513 31.515C74.4183 32.643 75.6593 34.028 77.7213 34.028C79.9123 34.028 81.7653 32.739 81.7653 29.598V21.962H79.9933V22.655ZM77.8513 28.536C76.5623 28.536 75.4833 27.457 75.4833 25.974C75.4833 24.476 76.5623 23.38 77.8513 23.38C79.1243 23.38 80.1223 24.475 80.1223 25.974C80.1223 27.456 79.1243 28.536 77.8513 28.536ZM102.232 17.452H97.7613V29.953H99.6263V25.217H102.231C104.299 25.217 106.332 23.72 106.332 21.335C106.332 18.95 104.3 17.452 102.232 17.452ZM102.28 23.477H99.6263V19.192H102.28C103.675 19.192 104.467 20.347 104.467 21.335C104.467 22.303 103.675 23.477 102.28 23.477ZM113.812 21.682C112.461 21.682 111.062 22.277 110.483 23.596L112.14 24.288C112.494 23.596 113.153 23.371 113.845 23.371C114.81 23.371 115.791 23.95 115.807 24.979V25.108C115.469 24.915 114.745 24.625 113.861 24.625C112.076 24.625 110.258 25.606 110.258 27.44C110.258 29.113 111.722 30.19 113.362 30.19C114.617 30.19 115.308 29.627 115.742 28.968H115.806V29.933H117.607V25.14C117.607 22.92 115.951 21.682 113.812 21.682ZM113.586 28.533C112.975 28.533 112.122 28.227 112.122 27.472C112.122 26.507 113.184 26.137 114.1 26.137C114.92 26.137 115.306 26.314 115.805 26.555C115.661 27.713 114.664 28.533 113.586 28.533ZM124.169 21.955L122.03 27.375H121.966L119.747 21.955H117.737L121.066 29.53L119.168 33.744H121.114L126.245 21.955H124.169ZM107.362 29.953H109.228V17.452H107.362V29.953Z" fill="black"/>
<path fill-rule="evenodd" clip-rule="evenodd" d="M74.0773 12.224C73.4873 12.831 72.7543 13.133 71.8773 13.133C71.0003 13.133 70.2673 12.83 69.6783 12.224C69.0883 11.618 68.7943 10.876 68.7943 9.999C68.7943 9.122 69.0883 8.38 69.6783 7.774C70.2673 7.167 71.0003 6.864 71.8773 6.864C72.7493 6.864 73.4813 7.169 74.0733 7.778C74.6653 8.387 74.9613 9.127 74.9613 9.999C74.9613 10.877 74.6663 11.619 74.0773 12.224ZM70.2473 11.722C70.6913 12.172 71.2343 12.396 71.8773 12.396C72.5203 12.396 73.0633 12.171 73.5073 11.722C73.9513 11.272 74.1743 10.698 74.1743 10C74.1743 9.302 73.9513 8.727 73.5073 8.278C73.0643 7.828 72.5203 7.604 71.8773 7.604C71.2343 7.604 70.6913 7.829 70.2473 8.278C69.8043 8.728 69.5813 9.302 69.5813 10C69.5813 10.698 69.8043 11.272 70.2473 11.722Z" fill="black"/>
<path d="M47.8863 10.243C47.8863 11.081 47.6383 11.748 47.1413 12.246C46.5773 12.838 45.8413 13.134 44.9373 13.134C44.0713 13.134 43.3343 12.834 42.7293 12.234C42.1233 11.633 41.8203 10.889 41.8203 10.001C41.8203 9.112 42.1233 8.368 42.7293 7.768C43.3343 7.167 44.0713 6.867 44.9373 6.867C45.3673 6.867 45.7783 6.951 46.1683 7.118C46.5593 7.286 46.8723 7.509 47.1063 7.788L46.5793 8.316C46.1823 7.841 45.6353 7.604 44.9363 7.604C44.3043 7.604 43.7583 7.826 43.2973 8.27C42.8373 8.714 42.6073 9.29 42.6073 10C42.6073 10.71 42.8373 11.286 43.2983 11.731C43.7593 12.175 44.3053 12.397 44.9373 12.397C45.6073 12.397 46.1663 12.174 46.6133 11.727C46.9033 11.436 47.0713 11.031 47.1163 10.512H44.9373V9.79H47.8443C47.8733 9.947 47.8863 10.098 47.8863 10.243Z" fill="black"/>
<path d="M52.4963 7.737H49.7643V9.639H52.2283V10.36H49.7643V12.262H52.4963V13H48.9933V7H52.4963V7.737Z" fill="black"/>
<path d="M54.9753 13H55.7463V7.737H57.4223V7H53.2993V7.737H54.9753V13Z" fill="black"/>
<path d="M60.4063 13V7H61.1773V13H60.4063Z" fill="black"/>
<path d="M63.8243 13H64.5953V7.737H66.2713V7H62.1483V7.737H63.8243V13Z" fill="black"/>
<path d="M76.0433 7V13H76.8123V9.262L76.7793 8.106H76.8123L79.8633 13H80.6683V7H79.8973V10.512L79.9303 11.668H79.8973L76.9813 7H76.0433Z" fill="black"/>
<path fill-rule="evenodd" clip-rule="evenodd" d="M74.0773 12.224C73.4873 12.831 72.7543 13.133 71.8773 13.133C71.0003 13.133 70.2673 12.83 69.6783 12.224C69.0883 11.618 68.7943 10.876 68.7943 9.999C68.7943 9.122 69.0883 8.38 69.6783 7.774C70.2673 7.167 71.0003 6.864 71.8773 6.864C72.7493 6.864 73.4813 7.169 74.0733 7.778C74.6653 8.387 74.9613 9.127 74.9613 9.999C74.9613 10.877 74.6663 11.619 74.0773 12.224ZM70.2473 11.722C70.6913 12.172 71.2343 12.396 71.8773 12.396C72.5203 12.396 73.0633 12.171 73.5073 11.722C73.9513 11.272 74.1743 10.698 74.1743 10C74.1743 9.302 73.9513 8.727 73.5073 8.278C73.0643 7.828 72.5203 7.604 71.8773 7.604C71.2343 7.604 70.6913 7.829 70.2473 8.278C69.8043 8.728 69.5813 9.302 69.5813 10C69.5813 10.698 69.8043 11.272 70.2473 11.722Z" stroke="black" stroke-width="0.2" stroke-miterlimit="10"/>
<path d="M47.8863 10.243C47.8863 11.081 47.6383 11.748 47.1413 12.246C46.5773 12.838 45.8413 13.134 44.9373 13.134C44.0713 13.134 43.3343 12.834 42.7293 12.234C42.1233 11.633 41.8203 10.889 41.8203 10.001C41.8203 9.112 42.1233 8.368 42.7293 7.768C43.3343 7.167 44.0713 6.867 44.9373 6.867C45.3673 6.867 45.7783 6.951 46.1683 7.118C46.5593 7.286 46.8723 7.509 47.1063 7.788L46.5793 8.316C46.1823 7.841 45.6353 7.604 44.9363 7.604C44.3043 7.604 43.7583 7.826 43.2973 8.27C42.8373 8.714 42.6073 9.29 42.6073 10C42.6073 10.71 42.8373 11.286 43.2983 11.731C43.7593 12.175 44.3053 12.397 44.9373 12.397C45.6073 12.397 46.1663 12.174 46.6133 11.727C46.9033 11.436 47.0713 11.031 47.1163 10.512H44.9373V9.79H47.8443C47.8733 9.947 47.8863 10.098 47.8863 10.243Z" stroke="black" stroke-width="0.2" stroke-miterlimit="10"/>
<path d="M52.4963 7.737H49.7643V9.639H52.2283V10.36H49.7643V12.262H52.4963V13H48.9933V7H52.4963V7.737Z" stroke="black" stroke-width="0.2" stroke-miterlimit="10"/>
<path d="M54.9753 13H55.7463V7.737H57.4223V7H53.2993V7.737H54.9753V13Z" stroke="black" stroke-width="0.2" stroke-miterlimit="10"/>
<path d="M60.4063 13V7H61.1773V13H60.4063Z" stroke="black" stroke-width="0.2" stroke-miterlimit="10"/>
<path d="M63.8243 13H64.5953V7.737H66.2713V7H62.1483V7.737H63.8243V13Z" stroke="black" stroke-width="0.2" stroke-miterlimit="10"/>
<path d="M76.0433 7V13H76.8123V9.262L76.7793 8.106H76.8123L79.8633 13H80.6683V7H79.8973V10.512L79.9303 11.668H79.8973L76.9813 7H76.0433Z" stroke="black" stroke-width="0.2" stroke-miterlimit="10"/>
</g>
<defs>
<linearGradient id="paint0_linear_17_47" x1="22.2192" y1="8.77381" x2="5.4368" y2="25.5562" gradientUnits="userSpaceOnUse">
<stop stop-color="#00A0FF"/>
<stop offset="0.0066" stop-color="#00A1FF"/>
<stop offset="0.2601" stop-color="#00BEFF"/>
<stop offset="0.5122" stop-color="#00D2FF"/>
<stop offset="0.7604" stop-color="#00DFFF"/>
<stop offset="1" stop-color="#00E3FF"/>
</linearGradient>
<linearGradient id="paint1_linear_17_47" x1="34.2539" y1="20.0655" x2="10.057" y2="20.0655" gradientUnits="userSpaceOnUse">
<stop stop-color="#FFE000"/>
<stop offset="0.4087" stop-color="#FFBD00"/>
<stop offset="0.7754" stop-color="#FFA500"/>
<stop offset="1" stop-color="#FF9C00"/>
</linearGradient>
<linearGradient id="paint2_linear_17_47" x1="25.2465" y1="22.3602" x2="2.48821" y2="45.1185" gradientUnits="userSpaceOnUse">
<stop stop-color="#FF3A44"/>
<stop offset="1" stop-color="#C31162"/>
</linearGradient>
<linearGradient id="paint3_linear_17_47" x1="7.71679" y1="0.240313" x2="17.8794" y2="10.4028" gradientUnits="userSpaceOnUse">
<stop stop-color="#32A071"/>
<stop offset="0.0685" stop-color="#2DA771"/>
<stop offset="0.4762" stop-color="#15CF74"/>
<stop offset="0.8009" stop-color="#06E775"/>
<stop offset="1" stop-color="#00F076"/>
</linearGradient>
<clipPath id="clip0_17_47">
<rect x="0.468323" width="135" height="40" rx="5" fill="white"/>
</clipPath>
</defs>
</svg>
